PathFileType	4	(X/Y/Z)	Run_500 03
DataRate	CameraRate	NumFrames	NumMarkers	Units	OrigDataRate	OrigDataStartFrame	OrigNumFrames
100	100	5	45	mm	100	30	137
Frame#	Time	RASI			LPSI			RPSI			RTH1			RTH2			RTH3			LTH1			LTH2			LTH3			RTB1			RTB2			RTB3			RLMAL			RMMAL			LTB1			LTB2			LTB3			RCAL			RTOE			RMT5			LCAL			LTOE			LMT5			LACR			RACR			CLAV			C7			LPSH			RUA1			RUA2			RUA3			RLEL			RMEL			LUA1			LUA2			LUA3			LLEL			LMEL			RFAsuperior			RFAradius			RFAulna			LFAsuperior			LFAradius			LFAulna			LASI			
		X1	Y1	Z1	X2	Y2	Z2	X3	Y3	Z3	X4	Y4	Z4	X5	Y5	Z5	X6	Y6	Z6	X7	Y7	Z7	X8	Y8	Z8	X9	Y9	Z9	X10	Y10	Z10	X11	Y11	Z11	X12	Y12	Z12	X13	Y13	Z13	X14	Y14	Z14	X15	Y15	Z15	X16	Y16	Z16	X17	Y17	Z17	X18	Y18	Z18	X19	Y19	Z19	X20	Y20	Z20	X21	Y21	Z21	X22	Y22	Z22	X23	Y23	Z23	X24	Y24	Z24	X25	Y25	Z25	X26	Y26	Z26	X27	Y27	Z27	X28	Y28	Z28	X29	Y29	Z29	X30	Y30	Z30	X31	Y31	Z31	X32	Y32	Z32	X33	Y33	Z33	X34	Y34	Z34	X35	Y35	Z35	X36	Y36	Z36	X37	Y37	Z37	X38	Y38	Z38	X39	Y39	Z39	X40	Y40	Z40	X41	Y41	Z41	X42	Y42	Z42	X43	Y43	Z43	X44	Y44	Z44	X45	Y45	Z45	

23	0.55	955.254147	1041.673299	-251.648305	785.587554	1113.060305	-398.296084	791.973736	1104.628935	-308.081229	754.714623	822.383258	-204.190281	785.61503	729.8626870000001	-238.364728	673.590815	675.2113890000001	-242.585536	914.270022	871.761973	-528.195241	1045.607352	829.5446020000001	-519.681233	1060.831889	723.556917	-504.616927	555.2487159999999	449.791995	-298.822098	482.247104	438.905466	-259.382967	410.097009	333.215137	-312.039028	300.174554	284.238917	-302.055351	335.920293	285.174231	-378.592536	1135.026828	521.811202	-471.88318	1018.706664	458.205706	-504.600375	1043.802052	349.668125	-464.776541	266.234996	333.299829	-364.146624	317.373499	112.746405	-369.402253	264.825658	159.916697	-299.542314	890.3298590000001	240.101986	-425.844708	1099.297662	160.259247	-446.733007	1037.934044	161.882866	-516.594708	852.221332	1565.406195	-507.788195	940.5451849999999	1543.291932	-209.025871	981.364611	1493.497102	-357.911172	857.364833	1568.943455	-346.607277	771.898775	1539.962087	-482.746224	919.829282	1400.811615	-109.65485	842.379427	1348.460278	-99.27184099999999	859.7438	1294.740807	-58.638405	883.250807	1229.360739	-37.706674	820.291426	1212.521644	-109.241474	730.0393	1489.792402	-534.0647750000001	664.826037	1437.363577	-490.014175	628.2005810000001	1408.077938	-548.448548	587.549472	1336.061401	-571.5008309999999	593.661666	1324.847434	-478.889191	933.094545	1205.121104	-92.517549	1028.833622	1313.151894	-229.899689	1057.603416	1251.763734	-222.8687	654.971438	1267.372504	-559.056897	829.424398	1289.451934	-550.286654	815.700958	1224.329005	-566.951855	940.3303069999999	1065.902299	-474.171268	
24	0.5600000000000001	955.2789	1043.867494	-252.097511	785.387955	1113.405503	-397.844039	791.7551539999999	1106.166245	-306.644896	759.0426179999999	821.022444	-205.168671	789.912227	729.793054	-243.245877	679.0625219999999	673.4338310000001	-244.796397	906.632701	867.81154	-524.895071	1037.530977	825.469685	-522.04392	1051.606232	719.111441	-502.971897	549.4638660000001	455.439023	-303.452003	476.89627	449.88775	-262.390751	393.771513	352.806324	-314.064728	280.090679	313.282045	-300.893696	312.896684	313.303973	-378.924995	1140.999744	516.880837	-472.615316	1033.275516	439.535001	-503.218775	1070.360938	335.503472	-461.705985	247.209579	366.255506	-360.159977	281.961982	143.101303	-373.71325	236.440874	190.941372	-299.757964	929.912102	210.689868	-420.423322	1146.222872	152.049437	-435.736263	1085.659483	142.025587	-505.609732	852.609785	1565.373465	-509.58898	944.4780060000001	1544.248593	-210.491296	983.25201	1494.459352	-360.092524	860.027304	1570.554157	-347.770006	772.579372	1540.948031	-483.209575	925.025813	1400.519519	-111.324027	847.306125	1348.767621	-99.17527800000001	865.354072	1294.892805	-59.28278	888.636322	1229.30779	-39.125405	824.128484	1213.26858	-109.620288	729.2827160000001	1490.172378	-532.242363	665.568811	1438.694702	-484.827519	626.623748	1409.767125	-541.761942	584.292265	1337.788928	-563.44014	593.57383	1327.044968	-470.735161	937.112116	1206.049626	-95.434696	1029.300049	1314.943262	-234.30721	1058.58893	1253.713292	-228.082781	651.73549	1268.547994	-552.196907	826.765923	1289.666579	-549.307919	812.405213	1224.284434	-564.76585	938.321642	1066.517992	-474.545992	
25	0.57	955.130013	1045.60288	-251.655694	784.541017	1111.97429	-397.278402	790.844825	1105.957076	-305.13462	765.9150090000001	816.537062	-206.923155	796.30092	727.93252	-249.381237	686.5018669999999	669.431744	-247.513507	899.460906	863.6244390000001	-522.610357	1029.473134	819.607128	-524.4696300000001	1041.967417	712.536571	-503.565196	546.2577240000001	460.524378	-307.750384	474.32391	461.155266	-265.464572	380.944013	373.540047	-315.658921	263.949985	344.947334	-299.918819	294.851736	342.412049	-378.638342	1143.226663	509.065197	-472.960991	1045.789953	418.907225	-500.622376	1093.867549	321.148291	-457.903589	233.617499	400.612061	-358.232405	250.561356	176.779578	-374.209332	211.413829	225.897066	-298.157113	967.773035	184.249214	-413.04066	1188.458886	145.083558	-426.716182	1128.875779	125.19108	-495.4902	853.6844	1565.082871	-511.50348	949.008685	1544.268125	-212.130683	984.803729	1494.391703	-362.146287	863.030218	1572.81748	-349.307431	773.727324	1541.854285	-484.243637	929.484454	1399.193918	-113.076784	851.128032	1348.689442	-99.46167199999999	869.4111380000001	1294.692996	-60.214052	892.100279	1228.776336	-40.755084	826.856998	1213.918859	-110.611438	729.192215	1489.854243	-531.3379650000001	667.017239	1438.849542	-480.93036	626.443592	1409.829852	-536.500187	583.073487	1337.696314	-556.676442	595.2099930000001	1327.4604	-464.251564	939.561203	1205.340583	-97.965881	1031.109373	1312.727268	-238.127074	1060.002863	1251.221019	-232.054948	650.449533	1267.805483	-546.570532	825.884284	1287.627482	-548.97232	810.972837	1222.09878	-563.366491	935.993696	1066.774784	-474.548097	
26	0.58	955.0201	1046.404706	-250.635218	782.668051	1109.184312	-395.948668	789.917546	1104.018044	-303.635168	773.520277	810.6603	-208.902361	803.849739	724.73411	-254.561969	694.914444	664.104642	-250.291165	894.388752	861.057554	-522.508222	1022.983666	812.876351	-526.673702	1032.670557	704.42279	-505.957919	545.761069	464.765774	-310.798436	474.600612	472.794408	-268.088292	372.296167	394.866571	-316.064743	252.84496	378.970036	-299.016596	282.964052	371.052637	-377.584455	1141.890538	498.894456	-472.593257	1054.949038	398.091156	-496.649653	1112.954456	307.225376	-453.396891	227.358509	435.218179	-358.982131	224.474652	210.946002	-368.252787	190.236465	265.200788	-293.771375	1001.309336	161.95183	-404.323629	1224.105675	139.811198	-420.505351	1165.226313	112.524136	-487.370076	855.475367	1564.3908	-513.276874	953.355997	1543.353424	-214.003636	985.887535	1493.02982	-363.8871	865.772486	1574.835604	-351.02819	775.30072	1542.44934	-485.561628	932.782414	1397.640513	-114.963508	853.658851	1348.715618	-100.180031	871.7893319999999	1294.388139	-61.522666	893.556094	1228.047581	-42.57397	828.221091	1214.567826	-112.063622	729.938696	1489.011818	-531.3056	669.3225660000001	1438.038063	-478.460817	627.682018	1408.425621	-532.84957	583.906763	1335.840688	-551.621089	598.378658	1326.111569	-459.698294	940.422963	1203.077658	-99.99221199999999	1034.197693	1306.738348	-241.397655	1061.567068	1244.567832	-234.804697	651.103381	1265.179062	-542.693517	826.718001	1283.481449	-549.4120349999999	811.219469	1217.957073	-563.00946	933.613408	1066.686382	-474.586771	
27	0.59	955.035077	1045.800455	-249.636654	779.765037	1105.516278	-393.592252	789.299072	1100.693403	-302.115341	780.475222	804.5645060000001	-210.485836	811.847933	720.325558	-257.237804	703.765927	657.80732	-252.763522	891.783946	859.906699	-524.315737	1017.973172	805.338182	-528.630046	1023.477834	695.206407	-508.333266	548.128348	467.763945	-312.380281	477.98818	484.391642	-270.206574	368.251349	416.149284	-315.407613	247.673337	414.216794	-298.420659	277.224735	398.555569	-376.395669	1137.583464	487.6842	-471.976196	1059.240029	379.512509	-491.645663	1126.165187	294.855291	-448.943274	228.131397	468.740306	-362.170843	204.680632	245.078529	-356.550122	174.790426	307.697088	-286.907758	1027.723357	144.48788	-395.281625	1251.087959	136.301822	-416.833757	1192.573944	103.461512	-481.212783	857.8048219999999	1562.885793	-514.888554	956.734195	1541.551208	-215.934838	986.537009	1490.379704	-365.192372	867.70487	1575.276183	-352.711781	777.165227	1542.146791	-487.065756	934.788698	1396.247614	-116.882776	854.86891	1348.896598	-101.333902	872.5746799999999	1293.994915	-63.098593	893.147421	1227.229202	-44.483294	828.094173	1214.975902	-113.604281	731.441274	1487.300899	-532.105762	672.252515	1436.04182	-477.46189	630.1103429999999	1405.45069	-531.010182	586.512194	1332.205084	-548.648419	602.6196	1322.819485	-457.330148	939.747556	1199.360589	-101.294276	1038.013938	1297.244217	-244.035649	1062.725522	1234.220512	-236.150922	653.346798	1260.743024	-541.0038489999999	828.9643150000001	1277.451702	-550.745523	812.7909990000001	1212.05878	-563.9037	931.385778	1066.078958	-474.917272	
